<svg width="90" height="18" viewBox="0 0 90 18" fill="none" xmlns="http://www.w3.org/2000/svg">
<path d="M6.09716 4.83636V6.98409H0.316193V4.83636H6.09716ZM1.52727 2.64091H4.4446V11.1185C4.4446 11.2974 4.47244 11.4426 4.52812 11.554C4.58778 11.6614 4.6733 11.7389 4.78466 11.7866C4.89602 11.8304 5.02926 11.8523 5.18437 11.8523C5.29574 11.8523 5.41307 11.8423 5.53636 11.8224C5.66364 11.7986 5.75909 11.7787 5.82273 11.7628L6.2642 13.8688C6.125 13.9085 5.92812 13.9582 5.67358 14.0179C5.42301 14.0776 5.12273 14.1153 4.77273 14.1312C4.08864 14.1631 3.50199 14.0835 3.01278 13.8926C2.52756 13.6977 2.15568 13.3955 1.89716 12.9858C1.64261 12.5761 1.51932 12.0611 1.52727 11.4406V2.64091ZM10.6999 8.77386V14H7.78253V1.78182H10.6044V6.51875H10.7058C10.9126 5.95398 11.2507 5.5125 11.72 5.19432C12.1933 4.87614 12.772 4.71705 13.4561 4.71705C14.1004 4.71705 14.6612 4.86023 15.1385 5.14659C15.6158 5.42898 15.9857 5.82869 16.2482 6.34574C16.5146 6.86278 16.6459 7.46733 16.6419 8.15938V14H13.7246V8.7321C13.7286 8.22301 13.6013 7.82528 13.3428 7.53892C13.0842 7.25256 12.7203 7.10938 12.251 7.10938C11.9447 7.10938 11.6743 7.17699 11.4396 7.31222C11.2089 7.44347 11.028 7.63239 10.8967 7.87898C10.7695 8.12557 10.7038 8.42386 10.6999 8.77386ZM18.463 14V4.83636H21.3803V14H18.463ZM19.9246 3.76847C19.515 3.76847 19.163 3.63324 18.8687 3.36278C18.5744 3.08835 18.4272 2.75824 18.4272 2.37244C18.4272 1.99062 18.5744 1.66449 18.8687 1.39403C19.163 1.1196 19.515 0.982386 19.9246 0.982386C20.3383 0.982386 20.6903 1.1196 20.9806 1.39403C21.2749 1.66449 21.4221 1.99062 21.4221 2.37244C21.4221 2.75824 21.2749 3.08835 20.9806 3.36278C20.6903 3.63324 20.3383 3.76847 19.9246 3.76847ZM25.8205 14.1551C25.2358 14.1551 24.7168 14.0577 24.2634 13.8628C23.8139 13.6639 23.458 13.3656 23.1955 12.9679C22.9369 12.5662 22.8077 12.0631 22.8077 11.4585C22.8077 10.9494 22.8972 10.5199 23.0761 10.1699C23.2551 9.81989 23.5017 9.53551 23.8159 9.31676C24.1301 9.09801 24.492 8.93295 24.9017 8.82159C25.3114 8.70625 25.7489 8.62869 26.2142 8.58892C26.7352 8.54119 27.1548 8.49148 27.473 8.43977C27.7912 8.38409 28.0219 8.30653 28.1651 8.2071C28.3122 8.10369 28.3858 7.95852 28.3858 7.77159V7.74176C28.3858 7.43551 28.2804 7.19886 28.0696 7.03182C27.8588 6.86477 27.5744 6.78125 27.2165 6.78125C26.8307 6.78125 26.5205 6.86477 26.2858 7.03182C26.0511 7.19886 25.902 7.42955 25.8384 7.72386L23.1477 7.62841C23.2273 7.07159 23.4321 6.57443 23.7622 6.13693C24.0963 5.69545 24.5537 5.34943 25.1344 5.09886C25.719 4.84432 26.421 4.71705 27.2403 4.71705C27.825 4.71705 28.3639 4.78665 28.8571 4.92585C29.3503 5.06108 29.7798 5.25994 30.1457 5.52244C30.5116 5.78097 30.794 6.09915 30.9929 6.47699C31.1957 6.85483 31.2972 7.28636 31.2972 7.77159V14H28.5528V12.7233H28.4812C28.3182 13.0335 28.1094 13.296 27.8548 13.5108C27.6043 13.7256 27.308 13.8866 26.9659 13.994C26.6278 14.1014 26.246 14.1551 25.8205 14.1551ZM26.7213 12.246C27.0355 12.246 27.3179 12.1824 27.5685 12.0551C27.823 11.9278 28.0259 11.7528 28.177 11.5301C28.3281 11.3034 28.4037 11.0409 28.4037 10.7426V9.87159C28.3202 9.91534 28.2188 9.95511 28.0994 9.99091C27.9841 10.0267 27.8568 10.0605 27.7176 10.0923C27.5784 10.1241 27.4352 10.152 27.2881 10.1759C27.1409 10.1997 26.9997 10.2216 26.8645 10.2415C26.5901 10.2852 26.3554 10.3528 26.1605 10.4443C25.9696 10.5358 25.8224 10.6551 25.719 10.8023C25.6196 10.9455 25.5699 11.1165 25.5699 11.3153C25.5699 11.6176 25.6773 11.8483 25.892 12.0074C26.1108 12.1665 26.3872 12.246 26.7213 12.246ZM37.3526 17.6273C36.4815 17.6273 35.7358 17.506 35.1153 17.2634C34.4949 17.0207 34.0077 16.6886 33.6537 16.267C33.2997 15.8455 33.0869 15.3682 33.0153 14.8352L35.7776 14.6801C35.8293 14.867 35.9247 15.0301 36.0639 15.1693C36.2071 15.3085 36.392 15.4159 36.6187 15.4915C36.8494 15.567 37.1199 15.6048 37.4301 15.6048C37.9193 15.6048 38.323 15.4855 38.6412 15.2469C38.9634 15.0122 39.1244 14.6006 39.1244 14.0119V12.4011H39.023C38.9077 12.6835 38.7327 12.9361 38.498 13.1588C38.2634 13.3815 37.971 13.5565 37.621 13.6838C37.275 13.8111 36.8773 13.8747 36.4278 13.8747C35.7597 13.8747 35.1472 13.7196 34.5903 13.4094C34.0375 13.0952 33.594 12.6099 33.2599 11.9537C32.9298 11.2935 32.7648 10.4443 32.7648 9.40625C32.7648 8.33636 32.9358 7.4554 33.2778 6.76335C33.6199 6.06733 34.0673 5.55227 34.6202 5.21818C35.177 4.88409 35.7756 4.71705 36.4159 4.71705C36.8972 4.71705 37.3088 4.80057 37.6509 4.96761C37.9969 5.13068 38.2812 5.34148 38.504 5.6C38.7267 5.85852 38.8957 6.12699 39.0111 6.4054H39.0946V4.83636H42V14.0358C42 14.8114 41.8051 15.4656 41.4153 15.9986C41.0256 16.5315 40.4807 16.9352 39.7807 17.2097C39.0807 17.4881 38.2713 17.6273 37.3526 17.6273ZM37.442 11.7509C37.796 11.7509 38.0983 11.6574 38.3489 11.4705C38.5994 11.2835 38.7923 11.0151 38.9276 10.6651C39.0628 10.3151 39.1304 9.89545 39.1304 9.40625C39.1304 8.90909 39.0628 8.48153 38.9276 8.12358C38.7963 7.76165 38.6034 7.48324 38.3489 7.28835C38.0983 7.09347 37.796 6.99602 37.442 6.99602C37.0801 6.99602 36.7739 7.09545 36.5233 7.29432C36.2727 7.49318 36.0818 7.77358 35.9506 8.13551C35.8233 8.49347 35.7597 8.91705 35.7597 9.40625C35.7597 9.89545 35.8253 10.3151 35.9565 10.6651C36.0878 11.0151 36.2767 11.2835 36.5233 11.4705C36.7739 11.6574 37.0801 11.7509 37.442 11.7509ZM48.1374 14.173C47.1749 14.173 46.3477 13.9761 45.6556 13.5824C44.9675 13.1847 44.4366 12.6318 44.0627 11.9239C43.6928 11.2119 43.5079 10.3866 43.5079 9.44801C43.5079 8.5054 43.6928 7.68011 44.0627 6.97216C44.4366 6.26023 44.9675 5.70739 45.6556 5.31364C46.3477 4.91591 47.1749 4.71705 48.1374 4.71705C49.0999 4.71705 49.9252 4.91591 50.6133 5.31364C51.3053 5.70739 51.8363 6.26023 52.2062 6.97216C52.58 7.68011 52.767 8.5054 52.767 9.44801C52.767 10.3866 52.58 11.2119 52.2062 11.9239C51.8363 12.6318 51.3053 13.1847 50.6133 13.5824C49.9252 13.9761 49.0999 14.173 48.1374 14.173ZM48.1553 11.9716C48.5053 11.9716 48.8016 11.8642 49.0442 11.6494C49.2869 11.4347 49.4718 11.1364 49.5991 10.7545C49.7303 10.3727 49.7959 9.93125 49.7959 9.43011C49.7959 8.92102 49.7303 8.47557 49.5991 8.09375C49.4718 7.71193 49.2869 7.41364 49.0442 7.19886C48.8016 6.98409 48.5053 6.8767 48.1553 6.8767C47.7934 6.8767 47.4871 6.98409 47.2366 7.19886C46.99 7.41364 46.8011 7.71193 46.6698 8.09375C46.5425 8.47557 46.4789 8.92102 46.4789 9.43011C46.4789 9.93125 46.5425 10.3727 46.6698 10.7545C46.8011 11.1364 46.99 11.4347 47.2366 11.6494C47.4871 11.8642 47.7934 11.9716 48.1553 11.9716ZM59.4697 4.83636V6.98409H53.5754V4.83636H59.4697ZM54.8043 14V4.37102C54.8043 3.66307 54.9376 3.07642 55.204 2.61108C55.4705 2.14176 55.8404 1.79176 56.3137 1.56108C56.787 1.32642 57.3339 1.20909 57.9543 1.20909C58.36 1.20909 58.7418 1.24091 59.0998 1.30455C59.4617 1.36421 59.7302 1.4179 59.9052 1.46563L59.4398 3.60142C59.3325 3.56563 59.2012 3.5358 59.0461 3.51193C58.895 3.48807 58.7518 3.47614 58.6165 3.47614C58.2745 3.47614 58.0398 3.5517 57.9126 3.70284C57.7853 3.85398 57.7217 4.0608 57.7217 4.3233V14H54.8043ZM64.8554 14.173C63.8929 14.173 63.0656 13.9761 62.3736 13.5824C61.6855 13.1847 61.1545 12.6318 60.7807 11.9239C60.4108 11.2119 60.2258 10.3866 60.2258 9.44801C60.2258 8.5054 60.4108 7.68011 60.7807 6.97216C61.1545 6.26023 61.6855 5.70739 62.3736 5.31364C63.0656 4.91591 63.8929 4.71705 64.8554 4.71705C65.8179 4.71705 66.6432 4.91591 67.3312 5.31364C68.0233 5.70739 68.5543 6.26023 68.9241 6.97216C69.298 7.68011 69.4849 8.5054 69.4849 9.44801C69.4849 10.3866 69.298 11.2119 68.9241 11.9239C68.5543 12.6318 68.0233 13.1847 67.3312 13.5824C66.6432 13.9761 65.8179 14.173 64.8554 14.173ZM64.8733 11.9716C65.2233 11.9716 65.5196 11.8642 65.7622 11.6494C66.0048 11.4347 66.1898 11.1364 66.317 10.7545C66.4483 10.3727 66.5139 9.93125 66.5139 9.43011C66.5139 8.92102 66.4483 8.47557 66.317 8.09375C66.1898 7.71193 66.0048 7.41364 65.7622 7.19886C65.5196 6.98409 65.2233 6.8767 64.8733 6.8767C64.5114 6.8767 64.2051 6.98409 63.9545 7.19886C63.708 7.41364 63.519 7.71193 63.3878 8.09375C63.2605 8.47557 63.1969 8.92102 63.1969 9.43011C63.1969 9.93125 63.2605 10.3727 63.3878 10.7545C63.519 11.1364 63.708 11.4347 63.9545 11.6494C64.2051 11.8642 64.5114 11.9716 64.8733 11.9716ZM73.8967 8.77386V14H70.9794V4.83636H73.7536V6.51875H73.855C74.0578 5.95795 74.4038 5.51847 74.893 5.20028C75.3822 4.87813 75.9649 4.71705 76.6411 4.71705C77.2854 4.71705 77.8442 4.86222 78.3175 5.15256C78.7947 5.43892 79.1646 5.84062 79.4271 6.35767C79.6936 6.87074 79.8249 7.47131 79.8209 8.15938V14H76.9036V8.7321C76.9075 8.22301 76.7783 7.82528 76.5158 7.53892C76.2572 7.25256 75.8973 7.10938 75.4359 7.10938C75.1297 7.10938 74.8592 7.17699 74.6246 7.31222C74.3939 7.44347 74.2149 7.63239 74.0876 7.87898C73.9643 8.12557 73.9007 8.42386 73.8967 8.77386ZM89.6273 7.63438L86.9486 7.70597C86.9208 7.51506 86.8452 7.34602 86.7219 7.19886C86.5986 7.04773 86.4376 6.9304 86.2387 6.84688C86.0438 6.75938 85.8171 6.71563 85.5586 6.71563C85.2205 6.71563 84.9322 6.78324 84.6935 6.91847C84.4589 7.05369 84.3435 7.23665 84.3475 7.46733C84.3435 7.64631 84.4151 7.80142 84.5623 7.93267C84.7134 8.06392 84.9819 8.16932 85.3677 8.24886L87.1336 8.58295C88.0484 8.75795 88.7285 9.0483 89.1739 9.45398C89.6234 9.85966 89.8501 10.3966 89.854 11.0648C89.8501 11.6932 89.6631 12.2401 89.2932 12.7054C88.9273 13.1707 88.4262 13.5327 87.7898 13.7912C87.1535 14.0457 86.4256 14.173 85.6063 14.173C84.2978 14.173 83.2657 13.9045 82.51 13.3676C81.7583 12.8267 81.3288 12.1028 81.2214 11.196L84.1029 11.1244C84.1665 11.4585 84.3316 11.7131 84.5981 11.8881C84.8646 12.0631 85.2046 12.1506 85.6182 12.1506C85.9921 12.1506 86.2964 12.081 86.531 11.9418C86.7657 11.8026 86.885 11.6176 86.889 11.3869C86.885 11.1801 86.7935 11.0151 86.6146 10.8918C86.4356 10.7645 86.1552 10.6651 85.7734 10.5935L84.1745 10.2892C83.2557 10.1222 82.5717 9.81392 82.1222 9.36449C81.6728 8.91108 81.4501 8.33438 81.454 7.63438C81.4501 7.02188 81.6131 6.49886 81.9432 6.06534C82.2734 5.62784 82.7427 5.29375 83.3512 5.06307C83.9597 4.83239 84.6776 4.71705 85.5049 4.71705C86.7458 4.71705 87.7242 4.97756 88.4401 5.49858C89.156 6.01563 89.5518 6.72756 89.6273 7.63438Z" fill="#242424"/>
</svg>
